<mxfile host="app.diagrams.net" agent="Mozilla/5.0 (Macintosh; Intel Mac OS X 10_15_7) AppleWebKit/537.36 (KHTML, like Gecko) Chrome/136.0.0.0 Safari/537.36" version="26.1.3">
  <diagram name="Page-1" id="jWyzsVF7seCyt7e9DeSR">
    <mxGraphModel dx="611" dy="546" grid="1" gridSize="10" guides="1" tooltips="1" connect="1" arrows="1" fold="1" page="1" pageScale="1" pageWidth="850" pageHeight="1100" math="0" shadow="0">
      <root>
        <mxCell id="0" />
        <mxCell id="1" parent="0" />
        <mxCell id="rXOE4ZA5UKZVPc1U3NuU-8" value="F" style="verticalLabelPosition=middle;verticalAlign=middle;html=1;shape=mxgraph.basic.rounded_frame;dx=5;whiteSpace=wrap;strokeWidth=1;perimeterSpacing=0;spacing=0;fontSize=12;labelBackgroundColor=none;labelPosition=center;align=center;fillColor=default;noLabel=0;" vertex="1" parent="1">
          <mxGeometry x="110" y="440" width="60" height="40" as="geometry" />
        </mxCell>
        <mxCell id="rXOE4ZA5UKZVPc1U3NuU-5" style="edgeStyle=orthogonalEdgeStyle;rounded=0;orthogonalLoop=1;jettySize=auto;html=1;exitX=1;exitY=0.5;exitDx=0;exitDy=0;entryX=0;entryY=0.5;entryDx=0;entryDy=0;endArrow=none;startFill=0;" edge="1" parent="1" source="rXOE4ZA5UKZVPc1U3NuU-2" target="rXOE4ZA5UKZVPc1U3NuU-3">
          <mxGeometry relative="1" as="geometry" />
        </mxCell>
        <mxCell id="rXOE4ZA5UKZVPc1U3NuU-18" value="E.Ssn = W.Essn" style="edgeLabel;html=1;align=center;verticalAlign=middle;resizable=0;points=[];" vertex="1" connectable="0" parent="rXOE4ZA5UKZVPc1U3NuU-5">
          <mxGeometry relative="1" as="geometry">
            <mxPoint y="-10" as="offset" />
          </mxGeometry>
        </mxCell>
        <mxCell id="rXOE4ZA5UKZVPc1U3NuU-2" value="E" style="ellipse;whiteSpace=wrap;html=1;aspect=fixed;" vertex="1" parent="1">
          <mxGeometry x="120" y="360" width="40" height="40" as="geometry" />
        </mxCell>
        <mxCell id="rXOE4ZA5UKZVPc1U3NuU-6" style="edgeStyle=orthogonalEdgeStyle;rounded=0;orthogonalLoop=1;jettySize=auto;html=1;exitX=1;exitY=0.5;exitDx=0;exitDy=0;entryX=0;entryY=0.5;entryDx=0;entryDy=0;endArrow=none;startFill=0;" edge="1" parent="1" source="rXOE4ZA5UKZVPc1U3NuU-3" target="rXOE4ZA5UKZVPc1U3NuU-4">
          <mxGeometry relative="1" as="geometry" />
        </mxCell>
        <mxCell id="rXOE4ZA5UKZVPc1U3NuU-19" value="W.Pno = P.Pnumber" style="edgeLabel;html=1;align=center;verticalAlign=middle;resizable=0;points=[];" vertex="1" connectable="0" parent="rXOE4ZA5UKZVPc1U3NuU-6">
          <mxGeometry relative="1" as="geometry">
            <mxPoint y="-10" as="offset" />
          </mxGeometry>
        </mxCell>
        <mxCell id="rXOE4ZA5UKZVPc1U3NuU-3" value="W" style="ellipse;whiteSpace=wrap;html=1;aspect=fixed;" vertex="1" parent="1">
          <mxGeometry x="280" y="360" width="40" height="40" as="geometry" />
        </mxCell>
        <mxCell id="rXOE4ZA5UKZVPc1U3NuU-4" value="P" style="ellipse;whiteSpace=wrap;html=1;aspect=fixed;" vertex="1" parent="1">
          <mxGeometry x="440" y="360" width="40" height="40" as="geometry" />
        </mxCell>
        <mxCell id="rXOE4ZA5UKZVPc1U3NuU-14" style="edgeStyle=orthogonalEdgeStyle;rounded=0;orthogonalLoop=1;jettySize=auto;html=1;exitX=0.5;exitY=1;exitDx=0;exitDy=0;entryX=0.5;entryY=0;entryDx=0;entryDy=0;entryPerimeter=0;endArrow=none;startFill=0;" edge="1" parent="1" source="rXOE4ZA5UKZVPc1U3NuU-2" target="rXOE4ZA5UKZVPc1U3NuU-8">
          <mxGeometry relative="1" as="geometry" />
        </mxCell>
        <mxCell id="rXOE4ZA5UKZVPc1U3NuU-20" value="E.Sex = &#39;F&#39;" style="edgeLabel;html=1;align=center;verticalAlign=middle;resizable=0;points=[];" vertex="1" connectable="0" parent="rXOE4ZA5UKZVPc1U3NuU-14">
          <mxGeometry relative="1" as="geometry">
            <mxPoint x="30" as="offset" />
          </mxGeometry>
        </mxCell>
        <mxCell id="rXOE4ZA5UKZVPc1U3NuU-15" value="40" style="verticalLabelPosition=middle;verticalAlign=middle;html=1;shape=mxgraph.basic.rounded_frame;dx=5;whiteSpace=wrap;strokeWidth=1;perimeterSpacing=0;spacing=0;fontSize=12;labelBackgroundColor=none;labelPosition=center;align=center;fillColor=default;noLabel=0;" vertex="1" parent="1">
          <mxGeometry x="270" y="440" width="60" height="40" as="geometry" />
        </mxCell>
        <mxCell id="rXOE4ZA5UKZVPc1U3NuU-16" style="edgeStyle=orthogonalEdgeStyle;rounded=0;orthogonalLoop=1;jettySize=auto;html=1;exitX=0.5;exitY=1;exitDx=0;exitDy=0;entryX=0.5;entryY=0;entryDx=0;entryDy=0;entryPerimeter=0;endArrow=none;startFill=0;" edge="1" parent="1" source="rXOE4ZA5UKZVPc1U3NuU-3" target="rXOE4ZA5UKZVPc1U3NuU-15">
          <mxGeometry relative="1" as="geometry" />
        </mxCell>
        <mxCell id="rXOE4ZA5UKZVPc1U3NuU-21" value="W.Hours &amp;lt; 40" style="edgeLabel;html=1;align=center;verticalAlign=middle;resizable=0;points=[];" vertex="1" connectable="0" parent="rXOE4ZA5UKZVPc1U3NuU-16">
          <mxGeometry relative="1" as="geometry">
            <mxPoint x="40" as="offset" />
          </mxGeometry>
        </mxCell>
        <mxCell id="rXOE4ZA5UKZVPc1U3NuU-22" value="[E.Fname, E.Lname]" style="text;html=1;align=left;verticalAlign=top;resizable=0;points=[];autosize=1;strokeColor=none;fillColor=none;fontSize=11;" vertex="1" parent="1">
          <mxGeometry x="110" y="320" width="120" height="30" as="geometry" />
        </mxCell>
        <mxCell id="rXOE4ZA5UKZVPc1U3NuU-23" value="[P.Pname]" style="text;html=1;align=right;verticalAlign=top;resizable=0;points=[];autosize=1;strokeColor=none;fillColor=none;fontSize=11;" vertex="1" parent="1">
          <mxGeometry x="420" y="320" width="70" height="30" as="geometry" />
        </mxCell>
      </root>
    </mxGraphModel>
  </diagram>
</mxfile>
